<svg width="512" height="512" viewBox="0 0 512 512" fill="none" xmlns="http://www.w3.org/2000/svg">
<g clip-path="url(#clip0_2539_3549)">
<path d="M494.8 47C507.5 43.3 514.8 29.9 511.1 17.2C507.4 4.49999 494 -2.80002 481.2 0.999984L51.7 126.9C42.3 129.6 33.8 134.2 26.6 140.1C10.5 151.7 0 170.6 0 192V448C0 483.3 28.7 512 64 512H448C483.3 512 512 483.3 512 448V192C512 156.7 483.3 128 448 128H218.5L494.8 47ZM368 400C323.8 400 288 364.2 288 320C288 275.8 323.8 240 368 240C412.2 240 448 275.8 448 320C448 364.2 412.2 400 368 400ZM80 256C80 247.2 87.2 240 96 240H192C200.8 240 208 247.2 208 256C208 264.8 200.8 272 192 272H96C87.2 272 80 264.8 80 256ZM64 320C64 311.2 71.2 304 80 304H208C216.8 304 224 311.2 224 320C224 328.8 216.8 336 208 336H80C71.2 336 64 328.8 64 320ZM80 384C80 375.2 87.2 368 96 368H192C200.8 368 208 375.2 208 384C208 392.8 200.8 400 192 400H96C87.2 400 80 392.8 80 384Z" fill="var(--textPrimary)"/>
</g>
<defs>
<clipPath id="clip0_2539_3549">
<rect width="512" height="512" fill="var(--textPrimary)"/>
</clipPath>
</defs>
</svg>
