<svg width="512" height="512" viewBox="0 0 512 512" fill="none" xmlns="http://www.w3.org/2000/svg">
<g clip-path="url(#clip0_2548_3549)">
<path d="M417.377 114.762C425.959 112.261 430.892 103.206 428.392 94.6236C425.891 86.0411 416.836 81.1079 408.186 83.6759L117.938 168.757C111.586 170.581 105.841 173.69 100.976 177.677C90.0957 185.516 83 198.288 83 212.75V385.75C83 409.605 102.395 429 126.25 429H385.75C409.605 429 429 409.605 429 385.75V212.75C429 188.895 409.605 169.5 385.75 169.5H230.658L417.377 114.762ZM331.688 353.313C301.818 353.313 277.625 329.12 277.625 299.25C277.625 269.381 301.818 245.188 331.688 245.188C361.557 245.188 385.75 269.381 385.75 299.25C385.75 329.12 361.557 353.313 331.688 353.313ZM137.062 256C137.062 250.053 141.928 245.188 147.875 245.188H212.75C218.697 245.188 223.562 250.053 223.562 256C223.562 261.947 218.697 266.813 212.75 266.813H147.875C141.928 266.813 137.062 261.947 137.062 256ZM126.25 299.25C126.25 293.303 131.116 288.438 137.062 288.438H223.562C229.509 288.438 234.375 293.303 234.375 299.25C234.375 305.197 229.509 310.063 223.562 310.063H137.062C131.116 310.063 126.25 305.197 126.25 299.25ZM137.062 342.5C137.062 336.553 141.928 331.688 147.875 331.688H212.75C218.697 331.688 223.562 336.553 223.562 342.5C223.562 348.447 218.697 353.313 212.75 353.313H147.875C141.928 353.313 137.062 348.447 137.062 342.5Z" fill="white"/>
</g>
<defs>
<clipPath id="clip0_2548_3549">
<rect width="346" height="346" fill="white" transform="translate(83 83)"/>
</clipPath>
</defs>
</svg>
